#!OML:ASF H:\Dans Jumps\Project 1\Capture day 1\Session 1\subject.ASF
:FULLY-SPECIFIED
:DEGREES
406
root 0.598507 17.7356 6.2434 9.29636 -0.769796 -1.04349
lowerback 3.31326 0.158453 -0.532699
upperback 4.24025 0.172346 1.6934
thorax 2.49272 0.0432294 2.03741
lowerneck -13.9528 -0.306697 -1.00686
upperneck 29.6308 -0.335156 0.518702
head 12.0451 -0.195719 0.321132
rclavicle -2.98177e-016 -1.27222e-014
rhumerus -34.8356 -26.4913 -65.6784
rradius 19.4563
rwrist 44.5801
rhand -19.5827 -26.3361
rfingers 7.12502
rthumb 6.74265 -56.2087
lclavicle -2.98177e-016 -1.27222e-014
lhumerus -26.9541 9.77587 79.2455
lradius 16.6083
lwrist 5.62523
lhand -28.3526 -7.15521
lfingers 7.12502
lthumb -1.72642 22.8176
rfemur -19.8783 -2.48404 19.7143
rtibia 23.3977
rfoot -11.0526 0.125775
rtoes 13.2076
lfemur -19.1282 6.08025 -18.6288
ltibia 19.562
lfoot -7.07101 4.01943
ltoes -1.68774
407
root 0.601213 17.7372 6.2703 9.27114 -0.814898 -1.05577
lowerback 3.2138 0.16901 -0.517107
upperback 4.20325 0.186847 1.68435
thorax 2.5096 0.0511705 2.01933
lowerneck -13.9198 -0.30595 -0.998728
upperneck 29.6388 -0.33495 0.512857
head 12.0415 -0.195556 0.317586
rclavicle 1.88845e-015 -1.03368e-014
rhumerus -34.8523 -26.6517 -65.6887
rradius 19.3806
rwrist 44.6459
rhand -19.3999 -26.2689
rfingers 7.12502
rthumb 6.91917 -56.1358
lclavicle 1.88845e-015 -1.03368e-014
lhumerus -26.7438 9.48123 79.4949
lradius 17.0408
lwrist 6.30821
lhand -28.455 -7.44603
lfingers 7.12502
lthumb -1.82535 22.5259
rfemur -19.6974 -2.48237 19.7117
rtibia 23.2923
rfoot -11.1035 0.163124
rtoes 13.1963
lfemur -18.9512 6.12513 -18.6215
ltibia 19.4913
lfoot -7.13426 4.05077
ltoes -1.71342
408
root 0.603571 17.7385 6.29633 9.24219 -0.862471 -1.05142
lowerback 3.11664 0.17476 -0.521704
upperback 4.1715 0.194733 1.66927
thorax 2.5309 0.0552766 2.00648
lowerneck -13.8823 -0.302815 -1.00126
upperneck 29.6429 -0.331471 0.516585
head 12.0353 -0.19395 0.319928
rclavicle -3.97569e-016 -9.54166e-015
rhumerus -34.8146 -26.7732 -65.7574
rradius 19.313
rwrist 44.6781
rhand -19.2279 -26.1882
rfingers 7.12502
rthumb 7.0852 -56.0497
lclavicle -3.97569e-016 -9.54166e-015
lhumerus -26.5324 9.15023 79.753
lradius 17.4801
lwrist 6.94349
lhand -28.5688 -7.78338
lfingers 7.12502
lthumb -1.93524 22.1876
rfemur -19.5231 -2.47333 19.6908
rtibia 23.2005
rfoot -11.1575 0.19164
rtoes 13.1633
lfemur -18.7761 6.16813 -18.6311
ltibia 19.4236
lfoot -7.19132 4.07935
ltoes -1.75165
409
root 0.605598 17.7395 6.32133 9.21322 -0.909399 -1.03844
lowerback 3.02155 0.175602 -0.537235
upperback 4.14154 0.196027 1.65096
thorax 2.55315 0.0558178 1.99653
lowerneck -13.8344 -0.295132 -1.00461
upperneck 29.6432 -0.321159 0.519532
head 12.0254 -0.189534 0.323073
rclavicle -2.78299e-015 0
rhumerus -34.7289 -26.8259 -65.8934
rradius 19.2667
rwrist 44.647
rhand -19.0573 -26.1098
rfingers 7.12502
rthumb 7.24984 -55.9656
lclavicle -2.78299e-015 0
lhumerus -26.3235 8.76949 80.024
lradius 17.9493
lwrist 7.56467
lhand -28.6332 -7.99389
lfingers 7.12502
lthumb -1.99747 21.9765
rfemur -19.3599 -2.45241 19.6604
rtibia 23.1215
rfoot -11.213 0.205528
rtoes 13.1159
lfemur -18.6074 6.20412 -18.6482
ltibia 19.356
lfoot -7.23718 4.10528
ltoes -1.78531
410
root 0.607159 17.7403 6.34531 9.18232 -0.954364 -1.02608
lowerback 2.93051 0.172802 -0.556555
upperback 4.11378 0.192437 1.63383
thorax 2.57561 0.0537779 1.98996
lowerneck -13.7832 -0.283793 -1.00967
upperneck 29.6513 -0.304206 0.519162
head 12.0178 -0.182812 0.326223
rclavicle 4.96962e-016 9.93923e-015
rhumerus -34.5989 -26.7941 -66.099
rradius 19.2499
rwrist 44.538
rhand -18.888 -26.0324
rfingers 7.12502
rthumb 7.41326 -55.8825
lclavicle 4.96962e-016 9.93923e-015
lhumerus -26.1233 8.33176 80.3145
lradius 18.4673
lwrist 8.17561
lhand -28.6333 -7.97257
lfingers 7.12502
lthumb -1.99756 21.9978
rfemur -19.2031 -2.41372 19.6315
rtibia 23.052
rfoot -11.2674 0.196367
rtoes 13.0416
lfemur -18.4431 6.23013 -18.6612
ltibia 19.2892
lfoot -7.27164 4.13377
ltoes -1.83041
411
root 0.60855 17.741 6.36861 9.1492 -0.994737 -1.01547
lowerback 2.83919 0.165788 -0.573657
upperback 4.08918 0.183243 1.6179
thorax 2.60172 0.0489364 1.98342
lowerneck -13.7198 -0.269152 -1.01328
upperneck 29.6572 -0.27997 0.508796
head 12.0068 -0.173975 0.326392
rclavicle 3.97569e-015 -1.98785e-015
rhumerus -34.4287 -26.6948 -66.3638
rradius 19.2621
rwrist 44.3723
rhand -18.7161 -25.9612
rfingers 7.12502
rthumb 7.5792 -55.8054
lclavicle 3.97569e-015 -1.98785e-015
lhumerus -25.9325 7.85079 80.6182
lradius 19.0107
lwrist 8.74496
lhand -28.5962 -7.86515
lfingers 7.12502
lthumb -1.9617 22.1056
rfemur -19.0481 -2.37254 19.6056
rtibia 22.988
rfoot -11.3212 0.178449
rtoes 12.9531
lfemur -18.2828 6.24582 -18.6705
ltibia 19.2278
lfoot -7.30151 4.16502
ltoes -1.86908
412
root 0.609932 17.7417 6.39114 9.11499 -1.02432 -1.00866
lowerback 2.75059 0.15352 -0.582809
upperback 4.06655 0.16711 1.60397
thorax 2.62865 0.0408017 1.9745
lowerneck -13.6829 -0.247273 -1.00181
upperneck 29.6951 -0.242792 0.477674
head 12.0139 -0.160363 0.318064
rclavicle 8.24956e-015 -2.78299e-015
rhumerus -34.2216 -26.5231 -66.6873
rradius 19.3057
rwrist 44.1434
rhand -18.5595 -25.8909
rfingers 7.12502
rthumb 7.73033 -55.7296
lclavicle 8.24956e-015 -2.78299e-015
lhumerus -25.7428 7.33049 80.9343
lradius 19.5545
lwrist 9.25012
lhand -28.5448 -7.74524
lfingers 7.12502
lthumb -1.91205 22.2259
rfemur -18.894 -2.34211 19.5856
rtibia 22.9268
rfoot -11.3738 0.158562
rtoes 12.8633
lfemur -18.1293 6.24778 -18.6745
ltibia 19.176
lfoot -7.33186 4.19996
ltoes -1.9192
413
root 0.61113 17.7422 6.41274 9.08178 -1.04924 -1.0059
lowerback 2.66631 0.139155 -0.58833
upperback 4.0438 0.14819 1.59299
thorax 2.65315 0.0313461 1.96654
lowerneck -13.656 -0.221398 -0.987034
upperneck 29.7475 -0.197425 0.436166
head 12.0287 -0.144077 0.306446
rclavicle 4.47266e-015 1.15295e-014
rhumerus -33.9852 -26.2868 -67.0601
rradius 19.3819
rwrist 43.8616
rhand -18.4239 -25.8222
rfingers 7.12502
rthumb 7.86118 -55.6561
lclavicle 4.47266e-015 1.15295e-014
lhumerus -25.5445 6.77274 81.2614
lradius 20.085
lwrist 9.69395
lhand -28.4857 -7.64398
lfingers 7.12502
lthumb -1.85505 22.3277
rfemur -18.7445 -2.31106 19.5713
rtibia 22.8675
rfoot -11.4228 0.133902
rtoes 12.7845
lfemur -17.9868 6.24297 -18.6735
ltibia 19.1365
lfoot -7.3645 4.24041
ltoes -1.96973
